HIERARCHY
ROOT hip
{
	OFFSET 0.000000 0.000000 0.000000 
	CHANNELS 6 Xposition Yposition Zposition Xrotation Zrotation Yrotation
	JOINT abdomen
	{
		OFFSET 0.000000 3.402643 0.000000 
		CHANNELS 3 Xrotation Zrotation Yrotation
		JOINT chest
		{
			OFFSET 0.000000 8.438565 -0.680529 
			CHANNELS 3 Xrotation Zrotation Yrotation
			JOINT neck
			{
				OFFSET 0.000000 10.207942 -0.272212 
				CHANNELS 3 Xrotation Zrotation Yrotation
				JOINT head
				{
					OFFSET 0.000000 3.130431 0.000000 
					CHANNELS 3 Xrotation Zrotation Yrotation
					End Site
					{
						OFFSET 0.000000 3.130435 0.000000 
					}
				}
			}
			JOINT lCollar
			{
				OFFSET 3.470700 6.669187 -0.816635 
				CHANNELS 3 Yrotation Zrotation Xrotation
				JOINT lShldr
				{
					OFFSET 3.198488 0.000000 0.000000 
					CHANNELS 3 Zrotation Yrotation Xrotation
					JOINT lForeArm
					{
						OFFSET 10.139888 0.000000 0.000000 
						CHANNELS 3 Yrotation Zrotation Xrotation
						JOINT lHand
						{
							OFFSET 8.370511 0.000000 0.000000 
							CHANNELS 3 Zrotation Yrotation Xrotation
							End Site
							{
								OFFSET 4.083176 0.000000 0.000000 
							}
						}
					}
				}
			}
			JOINT rCollar
			{
				OFFSET -3.470700 6.669187 -0.816635 
				CHANNELS 3 Yrotation Zrotation Xrotation
				JOINT rShldr
				{
					OFFSET -3.198488 0.000000 0.000000 
					CHANNELS 3 Zrotation Yrotation Xrotation
					JOINT rForeArm
					{
						OFFSET -10.139888 0.000000 0.000000 
						CHANNELS 3 Yrotation Zrotation Xrotation
						JOINT rHand
						{
							OFFSET -8.370511 0.000000 0.000000 
							CHANNELS 3 Zrotation Yrotation Xrotation
							End Site
							{
								OFFSET -4.083176 0.000000 0.000000 
							}
						}
					}
				}
			}
		}
	}
	JOINT lThigh
	{
		OFFSET 5.308129 -1.633274 1.361059 
		CHANNELS 3 Xrotation Zrotation Yrotation
		JOINT lShin
		{
			OFFSET -2.041588 -20.007561 0.000000 
			CHANNELS 3 Xrotation Zrotation Yrotation
			JOINT lFoot
			{
				OFFSET 0.000000 -19.190928 -1.224953 
				CHANNELS 3 Xrotation Yrotation Zrotation
				End Site
				{
					OFFSET 0.000000 -2.449906 4.627600 
				}
			}
		}
	}
	JOINT rThigh
	{
		OFFSET -5.308129 -1.633274 1.361059 
		CHANNELS 3 Xrotation Zrotation Yrotation
		JOINT rShin
		{
			OFFSET 2.041588 -20.007561 0.000000 
			CHANNELS 3 Xrotation Zrotation Yrotation
			JOINT rFoot
			{
				OFFSET 0.000000 -19.190928 -1.224953 
				CHANNELS 3 Xrotation Yrotation Zrotation
				End Site
				{
					OFFSET 0.000000 -2.449906 4.627600 
				}
			}
		}
	}
}
MOTION
Frames: 16
Frame Time: 0.016667
0.393660 51.416233 1.303210 6.223828 3.981570 2.154099 14.861240 -5.494514 2.060056 -3.471165 0.702319 -2.744294 51.558491 8.067881 2.614341 -73.256966 -3.698471 -2.192391 8.570072 -23.862585 7.509585 -16.115330 29.694151 -9.351923 -72.973961 -0.259497 -2.646525 20.060349 56.291405 -10.813475 -10.826096 24.995213 18.121393 -7.544765 -5.242615 -3.783862 74.169724 0.233647 -2.523018 -41.528164 -67.630814 46.926128 -2.994661 2.867921 -0.239776 12.146935 -5.732066 -1.717041 -4.098836 4.309098 2.459153 0.994952 -7.899056 -36.236420 5.318993 5.646442 0.518220 1.714142 -5.443373 7.923510 
0.270309 51.384182 1.228395 6.394248 4.079819 1.889715 14.959183 -5.728342 2.168865 -3.651413 0.448833 -2.373051 51.558491 8.067881 2.614341 -72.986595 -3.570732 -2.534723 7.893239 -23.545973 7.179688 -16.271372 29.824736 -10.596230 -71.303040 -0.157575 -2.736249 20.394541 49.477985 -8.872120 -11.485776 24.991190 18.549372 -7.408968 -5.701508 -4.252958 74.259064 0.241376 -2.522833 -41.243591 -67.558685 46.502945 -3.274385 2.943100 0.050419 12.322674 -5.719651 -1.819118 -4.441544 4.469907 2.204213 0.476277 -7.878032 -35.938217 5.678212 5.625085 0.480878 2.117143 -5.406520 7.924246 
0.145678 51.352081 1.155189 6.590701 4.070613 1.635063 15.046746 -5.913641 2.198994 -3.902713 0.185442 -1.923818 51.558491 8.067881 2.614341 -72.784164 -3.345050 -2.993442 7.199626 -23.218626 6.944961 -16.255629 29.971962 -11.767084 -69.629654 -0.301787 -2.711999 19.937536 42.647133 -7.480859 -12.055811 25.000000 18.900177 -7.397234 -6.021007 -4.710530 74.347511 0.248381 -2.517189 -41.501671 -67.421295 46.663414 -3.517524 3.127824 0.038027 12.595125 -5.907349 -1.772883 -4.573291 4.884525 2.207286 0.026910 -8.023780 -35.723721 6.118699 5.616482 0.518847 2.225748 -5.271472 7.881031 
0.021055 51.319981 1.081986 6.787239 4.061325 1.381103 15.143495 -6.108689 2.229144 -4.167938 -0.078100 -1.455090 51.558491 8.067881 2.614341 -72.585342 -3.119340 -3.452780 6.498901 -22.887783 6.709516 -16.264330 30.118658 -12.960340 -67.958870 -0.445072 -2.685902 19.320314 35.828445 -6.140827 -12.626390 24.995626 19.257910 -7.391546 -6.340273 -5.157976 74.435944 0.255383 -2.511452 -41.758385 -67.284607 46.835270 -3.768614 3.319511 0.016040 12.857306 -6.092323 -1.745900 -4.735669 5.296297 2.242707 -0.431816 -8.180120 -35.518570 6.555974 5.624572 0.557448 2.313170 -5.140304 7.856758 
-0.039340 51.348091 0.983984 6.955971 4.159369 1.116724 15.318092 -6.332655 2.338035 -4.426747 -0.331961 -1.181677 51.558491 8.067881 2.614341 -72.470161 -2.962288 -3.784838 6.050087 -22.555094 6.484123 -16.094955 30.282385 -13.992833 -66.721748 -0.514862 -2.593908 19.164503 31.189543 -4.969865 -13.155793 24.994864 19.654585 -7.259223 -6.779333 -5.708149 74.524368 0.252971 -2.508228 -41.669231 -67.302940 46.666393 -4.133781 3.363568 0.179651 13.044641 -6.112660 -1.686986 -4.856328 5.357368 1.915287 -0.960536 -8.205644 -35.291557 6.917106 5.616921 0.666583 2.501432 -5.047183 7.904219 
-0.099734 51.376202 0.885986 7.114759 4.257333 0.862078 15.502721 -6.556612 2.437248 -4.678261 -0.595631 -0.888725 51.558491 8.067881 2.614341 -72.366554 -2.805257 -4.116429 5.607973 -22.218702 6.271244 -15.945991 30.440042 -15.036899 -65.486191 -0.572932 -2.501927 18.914824 26.559959 -3.827305 -13.679647 25.000000 20.045946 -7.127436 -7.227057 -6.258930 74.612358 0.250207 -2.502292 -41.579781 -67.308273 46.510750 -4.510756 3.426980 0.354370 13.210810 -6.132216 -1.616559 -4.968060 5.410332 1.582745 -1.487187 -8.224770 -35.093498 7.259577 5.605958 0.812789 2.696552 -4.959478 7.959266 
-0.158189 51.412262 0.782286 7.360153 4.316165 0.607426 15.599042 -6.761407 2.457759 -4.852999 -0.849547 -0.693573 51.558491 8.067881 2.614341 -72.351753 -2.639142 -4.272486 5.476388 -22.134371 6.255698 -15.689566 30.657358 -15.563285 -65.132332 -0.661230 -2.644179 19.153877 25.308397 -3.504289 -14.087026 24.999474 20.310291 -7.176489 -7.657594 -6.800782 74.701630 0.257872 -2.501418 -41.415768 -67.229202 46.346859 -4.784655 3.583616 0.663308 13.382095 -5.937659 -1.652576 -5.183705 5.223399 1.279549 -2.031615 -8.379251 -34.785664 7.616011 5.623333 0.756468 2.815886 -4.705063 8.060535 
-0.216643 51.448299 0.678585 7.604961 4.365152 0.352773 15.695642 -6.956437 2.478293 -5.029469 -1.103474 -0.498143 51.558491 8.067881 2.614341 -72.328506 -2.473107 -4.418370 5.344837 -22.049997 6.243819 -15.440823 30.881109 -16.106390 -64.779152 -0.750146 -2.785092 19.375242 24.057243 -3.194401 -14.494146 24.995266 20.573648 -7.217700 -8.089646 -7.340599 74.790466 0.246338 -2.502954 -41.252937 -67.149925 46.191738 -5.065073 3.728037 0.990877 13.548340 -5.742761 -1.706503 -5.357389 5.028535 0.969981 -2.578952 -8.523211 -34.495354 7.975954 5.628428 0.710306 2.953928 -4.465006 8.125437 
-0.262275 51.465420 0.569038 7.851562 4.423828 0.000000 15.794712 -7.034694 2.439513 -5.119845 -1.191385 -0.341926 51.558491 8.067881 2.614341 -72.412186 -2.385383 -4.447224 5.344837 -22.049997 6.243819 -15.209979 31.189465 -16.831907 -64.953369 -0.732836 -2.683292 19.662886 24.870321 -3.316053 -14.654355 24.996571 20.644165 -7.106830 -8.432215 -7.893526 74.879265 0.263060 -2.496671 -41.023228 -67.150101 46.073196 -5.421942 3.802981 1.084036 13.734537 -5.906165 -1.759065 -5.464740 5.175502 1.039162 -3.096024 -8.553180 -34.003098 8.322239 5.634828 0.507566 3.103860 -4.577060 8.056965 
-0.307908 51.482525 0.459491 8.098264 4.472576 -0.342279 15.882908 -7.112902 2.410431 -5.210700 -1.279290 -0.185719 51.558491 8.067881 2.614341 -72.496719 -2.287929 -4.476490 5.344837 -22.049997 6.243819 -14.987626 31.511065 -17.562677 -65.118286 -0.725383 -2.579409 19.940212 25.679136 -3.441028 -14.818912 24.995068 20.727215 -6.981406 -8.762362 -8.449644 74.967628 0.260594 -2.492827 -40.759445 -67.164040 45.925541 -5.793988 3.872316 1.148152 13.931051 -6.095204 -1.805971 -5.560853 5.303137 1.110463 -3.613623 -8.582832 -33.530479 8.684850 5.645734 0.315689 3.287418 -4.692880 7.957479 
-0.360663 51.487171 0.350876 8.341462 4.531004 -0.596927 16.060186 -7.220073 2.440707 -5.200184 -1.367179 -0.205253 51.558491 8.067881 2.614341 -72.582603 -2.278730 -4.300460 5.344837 -22.049997 6.243819 -14.864710 31.843315 -18.044245 -65.307220 -0.555244 -2.580863 20.188099 26.319824 -3.665271 -14.615859 24.993656 20.589466 -6.800591 -8.974046 -9.088017 75.143661 0.352389 -2.627496 -40.943504 -67.175262 46.331200 -6.159849 4.022009 1.496794 14.182630 -5.898881 -1.818355 -5.503767 5.042313 0.897922 -4.151333 -8.703512 -33.491596 8.936271 5.605276 0.579077 3.365034 -4.519063 8.049615 
-0.413421 51.491806 0.242260 8.594050 4.579574 -0.851575 16.247120 -7.327238 2.470998 -5.199621 -1.455068 -0.215022 51.558491 8.067881 2.614341 -72.668816 -2.269532 -4.114672 5.344837 -22.049997 6.243819 -14.743662 32.191040 -18.532146 -65.496544 -0.403673 -2.577975 20.424988 26.966648 -3.896765 -14.403867 24.994532 20.451948 -6.615765 -9.182807 -9.728582 75.312607 0.444379 -2.765652 -41.116249 -67.195061 46.726841 -6.506994 4.165416 1.833264 14.425568 -5.713132 -1.800932 -5.466156 4.791297 0.701556 -4.688267 -8.819872 -33.441883 9.197736 5.599831 0.834604 3.436566 -4.324795 8.086092 
-0.487806 51.490593 0.130134 8.701993 4.608360 -1.204350 16.335001 -7.415208 2.441939 -5.198544 -1.533189 -0.244315 51.558491 8.067881 2.614341 -72.840965 -2.172749 -3.880085 5.344213 -21.961643 6.240083 -14.324127 32.501972 -18.934753 -65.584793 -0.401474 -2.577424 20.377554 26.963436 -3.536696 -14.382466 24.995090 20.409403 -6.382223 -9.560194 -10.372303 75.497734 0.270257 -2.737547 -41.194157 -67.368805 46.960129 -6.763830 4.147998 1.910855 14.536712 -5.812202 -1.743343 -5.535018 4.909120 0.851786 -5.224807 -8.756178 -33.219429 9.634604 5.588567 0.940374 3.434649 -4.308426 7.988416 
-0.562189 51.489380 0.018007 8.809053 4.627181 -1.566860 16.424671 -7.493476 2.403205 -5.197616 -1.621077 -0.263843 51.558491 8.067881 2.614341 -73.002914 -2.075897 -3.635378 5.349377 -21.873222 6.223633 -13.912213 32.823551 -19.336164 -65.673515 -0.400123 -2.580835 20.342003 26.962557 -3.168154 -14.356576 24.996210 20.380035 -6.130859 -9.931628 -11.020852 75.682526 0.095904 -2.706904 -41.295586 -67.524002 47.216373 -7.024364 4.136344 1.997988 14.621528 -5.898895 -1.663431 -5.606040 5.009660 0.995439 -5.752192 -8.689756 -32.988029 10.075068 5.581584 1.036588 3.416587 -4.309548 7.894642 
-0.625857 51.480957 -0.100217 9.060384 4.675378 -1.822300 16.603024 -7.493584 2.382567 -5.204895 -1.621063 -0.351974 51.558491 8.067881 2.614341 -73.179634 -2.056984 -3.371524 5.298673 -21.689163 6.269103 -13.672217 33.236217 -19.729876 -65.840263 -0.405005 -2.576448 20.252924 26.935867 -2.725154 -14.356576 24.996210 20.380035 -6.118464 -10.318933 -11.836205 75.682526 0.095904 -2.706904 -41.280190 -67.715950 47.370014 -7.298931 4.390862 2.154505 14.894502 -6.006472 -1.729406 -5.771071 5.069756 0.858593 -6.288971 -8.736203 -32.790222 10.319559 5.584282 1.028809 3.424339 -4.327357 7.806006 
-0.689523 51.472530 -0.218442 9.310119 4.733200 -2.086680 16.781778 -7.483933 2.363204 -5.202407 -1.621046 -0.439830 51.558491 8.067881 2.614341 -73.356003 -2.047787 -3.097912 5.247666 -21.505207 6.314627 -13.431754 33.647057 -20.118206 -66.016701 -0.409432 -2.570837 20.158777 26.908764 -2.269983 -14.356576 24.996210 20.380035 -6.084405 -10.706708 -12.662831 75.682526 0.095904 -2.706904 -41.288857 -67.903320 47.535648 -7.589864 4.653099 2.319814 15.167881 -6.113900 -1.786156 -5.923453 5.099016 0.708687 -6.845309 -8.801468 -32.590332 10.592326 5.574359 0.993459 3.440681 -4.343913 7.707692 
